# xmcd
#
# Track frame offsets: 
#        150
#        15158
#        30300
#        51458
#        67460
#        79325
#        97393
#        112590
#        126078
#        143858
#
# Disc length: 2150 seconds
#
# Revision: 4
# Processed by: cddbd v1.5.2PL0 Copyright (c) Steve Scherf et al.
# Submitted via: ExactAudioCopyFreeDBPlugin 1.0
#
DISCID=8708640a
DTITLE=Aretha Franklin - This Girl's In Love With You
DYEAR=1970
DGENRE=Soul
TTITLE0=Son of a Preacher Man
TTITLE1=Share Your Love with Me
TTITLE2=Dark End of the Street
TTITLE3=Let it Be
TTITLE4=Eleanor Rigby
TTITLE5=This Girl's in Love with You
TTITLE6=It Ain't Fair
TTITLE7=The Weight
TTITLE8=Call Me
TTITLE9=Sit Down and Cry
EXTD=YEAR: 1970
EXTT0=
EXTT1=
EXTT2=
EXTT3=
EXTT4=
EXTT5=
EXTT6=
EXTT7=
EXTT8=
EXTT9=
PLAYORDER=
